#!OML:ASF H:\Dans Jumps\Project 1\Capture day 1\Session 1\subject.ASF
:FULLY-SPECIFIED
:DEGREES
101
root -0.214503 16.9226 -15.1522 12.478 -1.38715 -1.80593
lowerback 10.2598 -0.0310281 0.421442
upperback 8.33186 -0.0387929 1.48623
thorax 2.93441 -0.0464504 1.30791
lowerneck -14.7007 0.626604 -1.34136
upperneck 30.8563 1.08994 0.559815
head 12.6822 0.390131 0.609576
rclavicle -3.47873e-015 -1.20265e-014
rhumerus -33.2685 -15.5119 -75.4508
rradius 25.7011
rwrist 28.5791
rhand -20.3741 -25.4294
rfingers 7.12502
rthumb 5.97865 -55.325
lclavicle -3.47873e-015 -1.20265e-014
lhumerus -29.6141 0.606502 85.8151
lradius 19.6846
lwrist 12.9364
lhand -27.908 -6.04678
lfingers 7.12502
lthumb -1.29706 23.929
rfemur -36.6435 -2.69945 20.7191
rtibia 42.3659
rfoot -17.2058 -1.51328
rtoes 7.05257
lfemur -35.8644 8.2753 -18.8128
ltibia 41.5131
lfoot -16.0287 6.76854
ltoes 0.511356
102
root -0.210585 16.9215 -15.153 12.4928 -1.40923 -1.81278
lowerback 10.2823 -0.0274657 0.418964
upperback 8.35056 -0.0343579 1.48434
thorax 2.94185 -0.0444137 1.3071
lowerneck -14.7269 0.636123 -1.32339
upperneck 30.8543 1.10903 0.528182
head 12.6872 0.396406 0.597319
rclavicle -2.88238e-015 -2.98177e-016
rhumerus -33.5035 -15.587 -75.3226
rradius 25.6823
rwrist 28.5798
rhand -20.3322 -25.4564
rfingers 7.12502
rthumb 6.01913 -55.3509
lclavicle -2.88238e-015 -2.98177e-016
lhumerus -29.7974 0.703791 85.7385
lradius 19.6375
lwrist 12.8456
lhand -27.8668 -5.95976
lfingers 7.12502
lthumb -1.25727 24.0163
rfemur -36.6723 -2.68293 20.7104
rtibia 42.3774
rfoot -17.2042 -1.5138
rtoes 7.03393
lfemur -35.8956 8.29715 -18.827
ltibia 41.5385
lfoot -16.0325 6.76568
ltoes 0.538896
103
root -0.206541 16.9205 -15.1536 12.5109 -1.43234 -1.82132
lowerback 10.2991 -0.0228026 0.418583
upperback 8.36838 -0.0284111 1.48381
thorax 2.95153 -0.0415674 1.3064
lowerneck -14.7391 0.647114 -1.30729
upperneck 30.844 1.13015 0.497632
head 12.6857 0.403582 0.585953
rclavicle -8.94531e-016 6.55989e-015
rhumerus -33.7378 -15.6693 -75.1881
rradius 25.6635
rwrist 28.5685
rhand -20.2997 -25.4805
rfingers 7.12502
rthumb 6.05051 -55.3741
lclavicle -8.94531e-016 6.55989e-015
lhumerus -29.9705 0.804654 85.6616
lradius 19.5808
lwrist 12.7486
lhand -27.836 -5.89193
lfingers 7.12502
lthumb -1.22754 24.0843
rfemur -36.703 -2.66449 20.7026
rtibia 42.3856
rfoot -17.2006 -1.5144
rtoes 7.01309
lfemur -35.9292 8.31769 -18.84
ltibia 41.5628
lfoot -16.0344 6.76472
ltoes 0.569976
104
root -0.202399 16.9197 -15.154 12.5323 -1.45546 -1.83322
lowerback 10.3099 -0.0171367 0.42358
upperback 8.38463 -0.0208232 1.4836
thorax 2.96273 -0.0376629 1.30288
lowerneck -14.7411 0.659421 -1.2916
upperneck 30.8298 1.15199 0.470468
head 12.6803 0.411523 0.575975
rclavicle -9.93923e-016 -7.15625e-015
rhumerus -33.9712 -15.7672 -75.047
rradius 25.6409
rwrist 28.5587
rhand -20.2707 -25.5152
rfingers 7.12502
rthumb 6.07851 -55.408
lclavicle -9.93923e-016 -7.15625e-015
lhumerus -30.1331 0.911475 85.5805
lradius 19.5156
lwrist 12.6408
lhand -27.8189 -5.84445
lfingers 7.12502
lthumb -1.21101 24.1319
rfemur -36.7332 -2.64458 20.698
rtibia 42.3886
rfoot -17.1954 -1.51577
rtoes 6.99623
lfemur -35.9633 8.33635 -18.8496
ltibia 41.5838
lfoot -16.0339 6.76744
ltoes 0.59348
105
root -0.198139 16.9193 -15.1541 12.5544 -1.47611 -1.84561
lowerback 10.3166 -0.0120898 0.430705
upperback 8.40187 -0.0139642 1.48351
thorax 2.97724 -0.0340317 1.29835
lowerneck -14.7391 0.672199 -1.27657
upperneck 30.8145 1.17421 0.4446
head 12.6737 0.419738 0.566635
rclavicle -1.2921e-015 1.78906e-015
rhumerus -34.1978 -15.8744 -74.9032
rradius 25.6122
rwrist 28.5535
rhand -20.2592 -25.5386
rfingers 7.12502
rthumb 6.08954 -55.4311
lclavicle -1.2921e-015 1.78906e-015
lhumerus -30.2825 1.02849 85.4946
lradius 19.4492
lwrist 12.5241
lhand -27.8011 -5.7849
lfingers 7.12502
lthumb -1.19379 24.1915
rfemur -36.7592 -2.62615 20.6934
rtibia 42.3855
rfoot -17.1899 -1.51687
rtoes 6.98272
lfemur -35.9942 8.34982 -18.8583
ltibia 41.5994
lfoot -16.0307 6.77368
ltoes 0.604939
106
root -0.193782 16.9194 -15.1538 12.5774 -1.49372 -1.85843
lowerback 10.3197 -0.00795645 0.441164
upperback 8.41971 -0.0081094 1.48258
thorax 2.99437 -0.0307236 1.29114
lowerneck -14.7246 0.682425 -1.27327
upperneck 30.7927 1.19175 0.431613
head 12.6616 0.426294 0.563444
rclavicle 1.98785e-016 5.56597e-015
rhumerus -34.4139 -15.9896 -74.7597
rradius 25.5746
rwrist 28.5543
rhand -20.239 -25.5856
rfingers 7.12502
rthumb 6.1091 -55.4775
lclavicle 1.98785e-016 5.56597e-015
lhumerus -30.4166 1.13648 85.4095
lradius 19.3802
lwrist 12.4164
lhand -27.7857 -5.7289
lfingers 7.12502
lthumb -1.17894 24.2476
rfemur -36.7801 -2.6099 20.6891
rtibia 42.3753
rfoot -17.1848 -1.5175
rtoes 6.97704
lfemur -36.0213 8.35692 -18.8658
ltibia 41.608
lfoot -16.0249 6.78453
ltoes 0.609562
107
root -0.18936 16.9199 -15.1534 12.6002 -1.50815 -1.87037
lowerback 10.3198 -0.00419638 0.453863
upperback 8.43891 -0.00261725 1.48007
thorax 3.01457 -0.0274464 1.28107
lowerneck -14.7133 0.690812 -1.26755
upperneck 30.7773 1.20552 0.420208
head 12.6529 0.431638 0.559944
rclavicle 4.96962e-015 -8.24956e-015
rhumerus -34.6203 -16.1051 -74.6195
rradius 25.5308
rwrist 28.559
rhand -20.2316 -25.6246
rfingers 7.12502
rthumb 6.1162 -55.5163
lclavicle 4.96962e-015 -8.24956e-015
lhumerus -30.5355 1.25372 85.3185
lradius 19.3132
lwrist 12.2953
lhand -27.765 -5.6365
lfingers 7.12502
lthumb -1.15893 24.3401
rfemur -36.7955 -2.59624 20.6841
rtibia 42.3583
rfoot -17.1793 -1.51835
rtoes 6.9761
lfemur -36.0429 8.35697 -18.8728
ltibia 41.6086
lfoot -16.0166 6.79857
ltoes 0.609955
108
root -0.184837 16.9208 -15.1526 12.6231 -1.5189 -1.88034
lowerback 10.3163 -0.00142701 0.468446
upperback 8.45875 0.00167997 1.47593
thorax 3.03743 -0.0246245 1.26836
lowerneck -14.7022 0.696812 -1.26405
upperneck 30.7695 1.21473 0.414486
head 12.6473 0.4354 0.558382
rclavicle 3.8763e-015 1.0635e-014
rhumerus -34.8149 -16.2197 -74.4826
rradius 25.4807
rwrist 28.5797
rhand -20.2151 -25.6779
rfingers 7.12502
rthumb 6.13216 -55.5691
lclavicle 3.8763e-015 1.0635e-014
lhumerus -30.6404 1.36925 85.227
lradius 19.2469
lwrist 12.1729
lhand -27.739 -5.53018
lfingers 7.12502
lthumb -1.13385 24.4465
rfemur -36.8059 -2.58759 20.6775
rtibia 42.3348
rfoot -17.1737 -1.51772
rtoes 6.97331
lfemur -36.0591 8.34834 -18.88
ltibia 41.6012
lfoot -16.007 6.81429
ltoes 0.621945
109
root -0.180321 16.9221 -15.1518 12.6461 -1.52554 -1.88989
lowerback 10.3095 0.000670718 0.4836
upperback 8.47942 0.00508437 1.47195
thorax 3.06303 -0.0222188 1.25555
lowerneck -14.6978 0.699996 -1.25983
upperneck 30.7744 1.21912 0.411087
head 12.6484 0.437328 0.557002
rclavicle -7.95139e-016 -8.44835e-015
rhumerus -34.993 -16.3382 -74.3454
rradius 25.418
rwrist 28.6301
rhand -20.2037 -25.7127
rfingers 7.12502
rthumb 6.14318 -55.6036
lclavicle -7.95139e-016 -8.44835e-015
lhumerus -30.7271 1.49529 85.1317
lradius 19.1767
lwrist 12.0364
lhand -27.7051 -5.42591
lfingers 7.12502
lthumb -1.10109 24.551
rfemur -36.8117 -2.58167 20.6711
rtibia 42.3055
rfoot -17.1669 -1.51605
rtoes 6.98123
lfemur -36.0708 8.33171 -18.8851
ltibia 41.5861
lfoot -15.9962 6.83036
ltoes 0.6461
